<?xml version="1.0" standalone="no"?>
<!DOCTYPE svg PUBLIC "-//W3C//DTD SVG 20010904//EN"
 "http://www.w3.org/TR/2001/REC-SVG-20010904/DTD/svg10.dtd">
<svg version="1.0" xmlns="http://www.w3.org/2000/svg"
 width="218.000000pt" height="221.000000pt" viewBox="0 0 218.000000 221.000000"
 preserveAspectRatio="xMidYMid meet">
<metadata>
Created by potrace 1.16, written by Peter Selinger 2001-2019
</metadata>
<g transform="translate(0.000000,221.000000) scale(0.100000,-0.100000)"
fill="#000000" stroke="none">
<path d="M1090 1847 c-19 -6 -56 -33 -81 -59 -41 -43 -48 -47 -81 -42 -55 9
-106 -12 -125 -52 -9 -18 -14 -36 -12 -39 3 -2 45 -2 93 2 l88 6 -5 33 c-5 28
-1 37 21 53 35 24 136 55 140 42 15 -45 87 -91 141 -91 30 0 64 24 73 50 3 10
11 9 36 -4 36 -18 42 -36 13 -36 -21 0 -32 -29 -24 -60 4 -16 14 -20 48 -20
23 0 63 -3 89 -6 42 -6 46 -5 46 14 0 25 -40 58 -84 70 -18 5 -45 21 -60 36
-16 14 -35 26 -43 26 -8 0 -19 14 -25 30 -5 17 -23 37 -39 45 -33 18 -156 19
-209 2z"/>
<path d="M793 1620 c-57 -25 -86 -66 -80 -111 4 -27 0 -38 -14 -47 -21 -13
-25 -52 -9 -83 17 -31 30 -22 14 10 -24 49 7 85 49 56 31 -22 89 -19 115 5 36
34 22 128 -22 152 -21 12 -21 12 4 18 24 6 24 6 3 12 -11 3 -39 -2 -60 -12z
m55 -33 c53 -56 27 -137 -44 -137 -73 0 -99 76 -45 131 35 35 60 37 89 6z"/>
<path d="M1439 1589 l-24 -19 29 10 c35 13 74 3 41 -10 -16 -7 -13 -9 16 -9
43 -1 69 -26 69 -67 0 -43 -25 -74 -61 -74 -36 0 -79 39 -80 72 l0 23 -10 -23
c-10 -26 2 -58 30 -79 21 -16 93 -17 109 -1 9 9 12 8 12 -8 0 -24 -28 -66 -40
-59 -5 3 -13 -18 -19 -47 -16 -76 -52 -145 -106 -206 -38 -42 -48 -62 -51 -94
-3 -51 -34 -88 -55 -65 -11 11 -16 12 -24 2 -14 -18 -162 -29 -168 -13 -4 10
-6 10 -6 1 -1 -20 -58 -16 -70 5 -6 9 -11 11 -11 5 0 -21 -40 -15 -61 10 l-18
22 -1 -24 c0 -23 -1 -24 -20 -6 -14 13 -20 31 -20 61 0 35 -7 54 -36 91 -45
59 -90 148 -109 216 l-15 52 4 -56 c6 -72 46 -158 101 -216 38 -39 43 -49 38
-79 -4 -22 0 -42 10 -58 11 -16 14 -32 8 -52 -6 -25 -18 -33 -85 -56 -81 -28
-100 -38 -74 -38 17 0 135 38 161 51 10 6 17 6 17 0 0 -35 383 -26 405 10 3 4
24 -3 48 -16 23 -12 59 -28 80 -35 21 -7 41 -18 43 -25 10 -24 -15 -55 -44
-56 l-27 -1 25 -11 c14 -7 41 -24 61 -39 42 -33 96 -53 167 -63 40 -5 52 -11
52 -24 0 -9 7 -26 16 -37 8 -10 12 -13 9 -6 -4 7 -7 28 -7 46 l0 33 -62 5
c-60 5 -156 39 -175 62 -13 16 -1 96 15 103 7 2 38 0 68 -7 41 -8 71 -24 118
-61 65 -53 77 -55 148 -33 23 7 24 6 11 -12 -11 -14 -9 -13 9 3 33 31 19 39
-33 19 -23 -9 -48 -16 -54 -16 -6 0 -33 18 -59 41 -65 55 -119 78 -179 79 -27
1 -84 13 -125 28 -85 31 -98 52 -68 110 10 20 15 45 12 62 -5 22 1 32 34 58
58 46 101 119 114 194 8 42 19 70 35 85 13 12 23 26 24 30 7 53 6 141 -2 155
-9 18 -67 58 -100 70 -8 3 -26 -3 -40 -13z m-319 -694 c47 0 113 4 148 8 58 8
62 8 62 -11 0 -25 -10 -29 -117 -43 -144 -19 -303 0 -303 36 0 23 15 27 70 18
30 -4 93 -8 140 -8z"/>
<path d="M1207 733 c-14 -14 -19 -15 -26 -5 -5 9 -26 12 -67 10 l-59 -3 1 -32
c1 -19 -4 -34 -12 -37 -10 -4 -14 3 -14 25 0 25 -4 30 -21 27 -17 -2 -22 -11
-24 -42 l-2 -38 36 6 c20 3 47 6 60 6 21 0 23 3 18 30 -4 17 -2 30 3 30 6 0
10 -13 10 -30 0 -36 -1 -36 46 -9 33 18 38 19 46 5 11 -19 59 -21 76 -4 7 7
12 21 12 33 0 44 -50 60 -83 28z"/>
</g>
</svg>
